<svg xmlns="http://www.w3.org/2000/svg" width="240" height="230" viewBox="0 0 240 230" font-family="sans-serif">
  <line x1="10" y1="100" x2="230" y2="100" stroke="#bbb" stroke-width="1" stroke-dasharray="4,4"/>
  <line x1="10" y1="30" x2="10" y2="170" stroke="#222" stroke-width="1.5"/>
  <line x1="10" y1="170" x2="230" y2="170" stroke="#222" stroke-width="1.5"/>
  <polygon points="230,170 220,165 220,175" fill="#222"/>
  <text x="222" y="185" font-size="12">idő</text>

  <polyline points="20,100 30,95 40,105 50,90 60,140 70,155 80,120 90,95 100,100 110,80 120,70 130,90 140,130 150,150 160,110 170,95 180,100 190,120 200,105 210,90 220,100"
            fill="none" stroke="#1a1a1a" stroke-width="2.5" stroke-linejoin="round"/>

  <line x1="70" y1="184" x2="70" y2="160" stroke="#b33" stroke-width="1.5"/>
  <polygon points="70,155 65,164 75,164" fill="#b33"/>
  <text x="70" y="196" text-anchor="middle" font-size="11" fill="#b33">mélypont (fading)</text>
  <text x="120" y="222" text-anchor="middle" font-size="13">Jel ingadozása az idő függvényében</text>
</svg>
