<svg xmlns="http://www.w3.org/2000/svg" width="280" height="270" viewBox="0 0 280 270" font-family="sans-serif">
  <!-- bejovo RF tartomany -->
  <line x1="20" y1="40" x2="250" y2="40" stroke="#222" stroke-width="2"/>
  <polygon points="250,40 240,34 240,46" fill="#222"/>
  <polygon points="65,40 95,40 80,10" fill="none" stroke="#1a1a1a" stroke-width="2.5"/>
  <polygon points="175,40 205,40 190,10" fill="none" stroke="#1a1a1a" stroke-width="2.5"/>
  <text x="80" y="56" text-anchor="middle" font-size="14">f₁</text>
  <text x="190" y="56" text-anchor="middle" font-size="14">f₂</text>
  <text x="135" y="72" text-anchor="middle" font-size="14">bejövő RF (hangolható)</text>

  <!-- konverzio nyilak -->
  <line x1="85" y1="15" x2="138" y2="181" stroke="#888" stroke-width="2" stroke-dasharray="5,4"/>
  <line x1="190" y1="15" x2="142" y2="181" stroke="#888" stroke-width="2" stroke-dasharray="5,4"/>
  <text x="185" y="130" font-size="13" fill="#666">keverés (LO)</text>
  <line x1="140" y1="182" x2="140" y2="188" stroke="#222" stroke-width="3"/>
  <polygon points="140,196 134,186 146,186" fill="#222"/>

  <!-- fix KF -->
  <line x1="20" y1="220" x2="250" y2="220" stroke="#222" stroke-width="2"/>
  <polygon points="250,220 240,214 240,226" fill="#222"/>
  <polygon points="125,220 155,220 140,190" fill="none" stroke="#1a1a1a" stroke-width="2.5"/>
  <text x="140" y="238" text-anchor="middle" font-size="14">KF (fix)</text>
  <text x="140" y="256" text-anchor="middle" font-size="14">mindig ugyanaz a frekvencia</text>
</svg>
